<?xml version="1.0" encoding="UTF-8"?>
<svg id="_图层_1" data-name="图层 1" xmlns="http://www.w3.org/2000/svg" viewBox="0 0 240 211.19">
  <defs>
    <style>
      .cls-1 {
        fill: #b8f601;
        stroke-width: 0px;
      }
    </style>
  </defs>
  <path class="cls-1" d="m240,81.02v112.21l-31.07,17.96v-76.36l-88.93,51.36-88.93-51.36v76.36L0,193.23v-112.21l96.33,55.63c14.66,8.43,32.68,8.43,47.34,0l96.33-55.63Z"/>
  <path class="cls-1" d="m153.41,86.87c0,8.88-3.51,17.34-9.77,23.64-6.3,6.26-14.76,9.77-23.64,9.77s-17.34-3.51-23.64-9.77c-6.26-6.3-9.77-14.76-9.77-23.64s3.51-17.37,9.77-23.64c6.3-6.26,14.76-9.8,23.64-9.8s17.34,3.54,23.64,9.8c6.26,6.26,9.77,14.76,9.77,23.64Z"/>
  <path class="cls-1" d="m240,69.29l-20.26,11.73-76.07-43.93c-14.66-8.46-32.68-8.46-47.34,0L20.26,81.02,0,69.29,120,0l120,69.29Z"/>
</svg>